# xmcd CD database file
#
# Track frame offsets:
#	150
#	19330
#	42197
#	60855
#	85370
#	99479
#	128961
#	148106
#	170814
#	204644
#	223315
#	242447
#	259139
#	275866
#
# Disc length: 4208 seconds
#
# Revision: 0
# Processed by: cddbd v1.5.2PL0 Copyright (c) Steve Scherf et al.
# Submitted via: CDex 1.51
#
DISCID=d8106e0e
DTITLE=Shaun Murphy - Live At Callahan`s Music hall
DYEAR=2011
DGENRE=Blues
TTITLE0=I Can Love You Like A Woman (Live)
TTITLE1=Mississippi Water (Live)
TTITLE2=That`s What Love Will Make You Do (Live)
TTITLE3=Come To Mama (Live)
TTITLE4=Hopelessly In Love With You (Live)
TTITLE5=Amazing Grace (Live)
TTITLE6=Can`t No Grave, Hold My Body Down (Live)
TTITLE7=Someone Else Is Steppin' In (Live)
TTITLE8=I Know Why The Sun Don`t Shie (Live)
TTITLE9=Strongest Weakness (Live)
TTITLE10=Gonna Buy Me A Mule (Live)
TTITLE11=Love Of Mine (Live)
TTITLE12=Down In The Flood (Live)
TTITLE13=It Feels Like Rain (Live)
EXTD=YEAR: 2011
EXTT0=
EXTT1=
EXTT2=
EXTT3=
EXTT4=
EXTT5=
EXTT6=
EXTT7=
EXTT8=
EXTT9=
EXTT10=
EXTT11=
EXTT12=
EXTT13=
PLAYORDER=
